<?xml version="1.0" standalone="no"?><!DOCTYPE svg PUBLIC "-//W3C//DTD SVG 1.1//EN" "http://www.w3.org/Graphics/SVG/1.1/DTD/svg11.dtd"><svg t="1744549484976" class="icon" viewBox="0 0 1024 1024" version="1.1" xmlns="http://www.w3.org/2000/svg" p-id="5329" xmlns:xlink="http://www.w3.org/1999/xlink" width="200" height="200"><path d="M512 1024A512 512 0 1 0 512 0a512 512 0 0 0 0 1024z" fill="#FFFFFF" p-id="5330"></path><path d="M512 949.101714c242.395429 0 438.857143-196.096 438.857143-437.979428S754.395429 73.142857 512 73.142857 73.142857 269.238857 73.142857 511.122286s196.461714 437.979429 438.857143 437.979428z" fill="#00CF72" p-id="5331"></path><path d="M512 754.395429c-134.656 0-243.785143-108.909714-243.785143-243.346286S377.344 267.776 512 267.776s243.785143 108.909714 243.785143 243.346286S646.656 754.395429 512 754.395429zM512 676.571429c91.574857 0 165.814857-74.093714 165.814857-165.449143S603.574857 345.673143 512 345.673143 346.185143 419.766857 346.185143 511.122286 420.425143 676.571429 512 676.571429z" fill="#FFFFFF" p-id="5332"></path><path d="M367.689143 267.776h192.804571l-27.574857 167.131429-144.310857-50.395429zM463.213714 587.995429h184.758857l-6.656 167.131428-116.736 11.702857z" fill="#00CF72" p-id="5333"></path><path d="M560.786286 744.667429l30.354285-184.027429 179.126858 128 2.998857 2.194286zM463.140571 277.504l-30.354285 184.100571-179.126857-128-2.998858-2.194285z" fill="#FFFFFF" p-id="5334"></path></svg>