<?xml version="1.0" standalone="no"?>
<!DOCTYPE svg PUBLIC "-//W3C//DTD SVG 1.1//EN" "http://www.w3.org/Graphics/SVG/1.1/DTD/svg11.dtd">
<svg
     class="icon"
     viewBox="0 0 1024 1024"
     version="1.1"
     xmlns="http://www.w3.org/2000/svg"

     xmlns:xlink="http://www.w3.org/1999/xlink"
     width="16"
     height="16">
    <path d="M512.219429 61.147429a436.662857 436.662857 0 0 0-336.896 158.72l-72.338286-96.694858L0 474.038857l74.678857 0.146286v0.438857l54.418286-0.292571 236.544 0.365714-98.011429-131.145143c51.565714-81.408 140.946286-136.118857 244.589715-136.118857 152.868571 0 276.918857 117.686857 290.011428 267.190857l147.602286 0.073143A438.564571 438.564571 0 0 0 512.219429 61.147429zM1023.926857 549.888l-74.678857-0.146286 0.073143-0.438857-54.564572 0.365714L658.285714 549.229714l98.011429 131.145143c-51.565714 81.408-140.946286 136.118857-244.589714 136.118857-152.868571 0-276.918857-117.686857-290.011429-267.190857l-147.529143-0.073143c13.238857 230.473143 203.776 413.549714 437.540572 413.549715a436.516571 436.516571 0 0 0 336.896-158.793143l72.265142 96.768 103.058286-350.866286z"
          fill="#3777FE"
          ></path>
</svg>